<svg width="360" height="410" viewBox="0 0 360 410" fill="none" xmlns="http://www.w3.org/2000/svg">
<path d="M180 0.5C279.135 0.5 359.5 80.8649 359.5 180V412.5H0.5V180C0.5 80.8649 80.8649 0.5 180 0.5Z" stroke="#E9E5DE" stroke-opacity="0.5"/>
<path d="M180 33.5C260.357 33.5 325.5 98.6426 325.5 179V411.5H34.5V179C34.5 98.6426 99.6426 33.5 180 33.5Z" stroke="#E9E5DE" stroke-opacity="0.5"/>
<path d="M180.5 70.5C241.251 70.5 290.5 119.749 290.5 180.5V412.5H70.5V180.5C70.5 119.749 119.749 70.5 180.5 70.5Z" stroke="#E9E5DE" stroke-opacity="0.5"/>
<path d="M180 98.5C226.116 98.5 263.5 135.884 263.5 182V411.5H96.5V182C96.5 135.884 133.884 98.5 180 98.5Z" stroke="#E9E5DE" stroke-opacity="0.5"/>
</svg>
