<svg width="30" height="31" viewBox="0 0 30 31" fill="none" xmlns="http://www.w3.org/2000/svg">
<path d="M29.9979 15.5005C29.9979 23.0765 24.3824 29.3396 17.0873 30.356C16.4052 30.4506 15.7073 30.5 14.9989 30.5C14.1813 30.5 13.3783 30.4348 12.5963 30.3087C5.45474 29.1589 0 22.9661 0 15.5005C0 7.21618 6.71595 0.5 15 0.5C23.2841 0.5 30 7.21618 30 15.5005H29.9979Z" fill="#383D38"/>
<path d="M17.088 12.5449V15.8126H21.1302L20.4901 20.2144H17.088V30.3559C16.4059 30.4505 15.7081 30.4999 14.9997 30.4999C14.182 30.4999 13.379 30.4348 12.5971 30.3086V20.2144H8.86914V15.8126H12.5971V11.8144C12.5971 9.33397 14.6077 7.32227 17.0891 7.32227V7.32437C17.0964 7.32437 17.1027 7.32227 17.1101 7.32227H21.1313V11.1292H18.5037C17.7228 11.1292 17.0891 11.7629 17.0891 12.5439L17.088 12.5449Z" fill="white"/>
</svg>
