<svg width="50" height="50" viewBox="0 0 50 50" fill="none" xmlns="http://www.w3.org/2000/svg">
<rect width="50" height="50" rx="5" fill="#FEF3E1"/>
<path d="M30.125 17.875H24.6634M19.2019 21.875C19.2019 21.875 23.827 21.875 27 21.875M30.125 21.875C30.125 21.875 28.6109 21.875 27 21.875M19.2019 17.875H24.6634M24.6634 17.875C24.6634 17.875 27 19.5 27 21.875M27 21.875C27 22.7314 26.6274 23.4149 26.1254 23.9471C24.7227 25.4341 22.463 25.5 20.4188 25.5H20.2083L26 32M15.9 11.875H34.1C35.3564 11.875 36.375 13.0503 36.375 14.5V36.7855C36.375 37.6656 35.3201 38.1165 34.684 37.5083L33.1729 36.0637C32.8297 35.7356 32.3031 35.694 31.9127 35.9643L29.3609 37.7309C29.0184 37.968 28.5649 37.968 28.2225 37.7309L25.5692 35.8941C25.2268 35.657 24.7732 35.657 24.4308 35.8941L21.7775 37.7309C21.4351 37.968 20.9816 37.968 20.6391 37.7309L18.0873 35.9643C17.6969 35.694 17.1703 35.7356 16.8271 36.0637L15.316 37.5083C14.6799 38.1165 13.625 37.6656 13.625 36.7855V14.5C13.625 13.0503 14.6436 11.875 15.9 11.875Z" stroke="#E8743E" stroke-width="2" stroke-linecap="round" stroke-linejoin="round"/>
</svg>
