<svg width="30" height="31" viewBox="0 0 30 31" fill="none" xmlns="http://www.w3.org/2000/svg">
<path d="M15.0342 0.5H14.9658C6.70044 0.5 0 7.20044 0 15.4658V15.5342C0 23.7996 6.70044 30.5 14.9658 30.5H15.0342C23.2996 30.5 30 23.7996 30 15.5342V15.4658C30 7.20044 23.2996 0.5 15.0342 0.5Z" fill="#383D38"/>
<path d="M19.6407 6.60254H10.3579C7.79336 6.60254 5.70703 8.68886 5.70703 11.2534V19.7459C5.70703 22.3104 7.79336 24.3967 10.3579 24.3967H19.6407C22.2053 24.3967 24.2916 22.3104 24.2916 19.7459V11.2534C24.2916 8.68886 22.2053 6.60254 19.6407 6.60254ZM7.34772 11.2534C7.34772 9.59382 8.69831 8.24322 10.3579 8.24322H19.6407C21.3003 8.24322 22.6509 9.59382 22.6509 11.2534V19.7459C22.6509 21.4055 21.3003 22.7561 19.6407 22.7561H10.3579C8.69831 22.7561 7.34772 21.4055 7.34772 19.7459V11.2534Z" fill="white"/>
<path d="M14.9999 19.8251C17.3848 19.8251 19.326 17.8848 19.326 15.499C19.326 13.1131 17.3858 11.1729 14.9999 11.1729C12.6141 11.1729 10.6738 13.1131 10.6738 15.499C10.6738 17.8848 12.6141 19.8251 14.9999 19.8251ZM14.9999 12.8146C16.4809 12.8146 17.6854 14.0191 17.6854 15.5C17.6854 16.9809 16.4809 18.1854 14.9999 18.1854C13.519 18.1854 12.3145 16.9809 12.3145 15.5C12.3145 14.0191 13.519 12.8146 14.9999 12.8146Z" fill="white"/>
<path d="M19.7262 11.872C20.3683 11.872 20.8918 11.3494 20.8918 10.706C20.8918 10.0626 20.3694 9.54004 19.7262 9.54004C19.0829 9.54004 18.5605 10.0626 18.5605 10.706C18.5605 11.3494 19.0829 11.872 19.7262 11.872Z" fill="white"/>
</svg>
