<svg width="30" height="31" viewBox="0 0 30 31" fill="none" xmlns="http://www.w3.org/2000/svg">
<path d="M15.0342 0.5H14.9658C6.70045 0.5 0 7.20044 0 15.4658V15.5342C0 23.7996 6.70045 30.5 14.9658 30.5H15.0342C23.2996 30.5 30 23.7996 30 15.5342V15.4658C30 7.20044 23.2996 0.5 15.0342 0.5Z" fill="#383D38"/>
<path d="M7.15423 10.4707C6.75903 10.1039 6.5625 9.64987 6.5625 9.10963C6.5625 8.56939 6.76008 8.09537 7.15423 7.7275C7.54942 7.36069 8.05813 7.17676 8.6814 7.17676C9.30467 7.17676 9.79341 7.36069 10.1876 7.7275C10.5827 8.09432 10.7793 8.55573 10.7793 9.10963C10.7793 9.66353 10.5817 10.1039 10.1876 10.4707C9.79236 10.8375 9.291 11.0215 8.6814 11.0215C8.07179 11.0215 7.54942 10.8375 7.15423 10.4707ZM10.4472 12.5749V23.8211H6.89357V12.5749H10.4472Z" fill="#FEFFFC"/>
<path d="M22.2766 13.6851C23.0512 14.5259 23.438 15.68 23.438 17.1493V23.6217H20.0631V17.6055C20.0631 16.8645 19.8708 16.2885 19.4871 15.8786C19.1035 15.4687 18.5864 15.2627 17.939 15.2627C17.2915 15.2627 16.7744 15.4677 16.3907 15.8786C16.0071 16.2885 15.8148 16.8645 15.8148 17.6055V23.6217H12.4199V12.5426H15.8148V14.012C16.1585 13.5222 16.622 13.1354 17.2043 12.8506C17.7866 12.5657 18.4414 12.4238 19.1697 12.4238C20.4667 12.4238 21.503 12.8442 22.2766 13.684V13.6851Z" fill="#FEFFFC"/>
</svg>
