<svg width="51" height="50" viewBox="0 0 51 50" fill="none" xmlns="http://www.w3.org/2000/svg">
<rect x="0.5" width="50" height="50" rx="5" fill="#F3F3FD"/>
<path d="M10.5 13.75V36.25C10.5 38.3211 12.1789 40 14.25 40H36.75C38.8211 40 40.5 38.3211 40.5 36.25V13.75M10.5 13.75C10.5 11.6789 12.1789 10 14.25 10H36.75C38.8211 10 40.5 11.6789 40.5 13.75M10.5 13.75C10.5 15.8211 12.1789 17.5 14.25 17.5H25.5H36.75C38.8211 17.5 40.5 15.8211 40.5 13.75" stroke="#6469E4" stroke-width="2" stroke-linecap="round"/>
<path d="M25.9561 24.0671C26.5089 24.0671 26.9967 24.1722 27.416 24.3865L27.5693 24.4705C27.9174 24.676 28.1955 24.9465 28.4014 25.282L28.4844 25.4294C28.6652 25.7782 28.7582 26.1719 28.7646 26.6082C28.765 26.6348 28.7541 26.6604 28.7354 26.6794C28.7166 26.6984 28.6908 26.7097 28.6641 26.7097H27.1895C27.1377 26.7097 27.0944 26.6695 27.0898 26.6179C27.0667 26.3583 26.9782 26.1564 26.8281 26.0046L26.7598 25.9421C26.5671 25.7843 26.2992 25.7 25.9453 25.7C25.7043 25.7 25.507 25.7377 25.3506 25.8093L25.3496 25.8103C25.192 25.8801 25.0745 25.9746 24.9941 26.0935L24.9951 26.0945C24.9165 26.2144 24.876 26.3507 24.876 26.5066V26.5095C24.8717 26.639 24.8958 26.7471 24.9443 26.8367H24.9453C24.9994 26.9317 25.0732 27.0154 25.1689 27.0867L25.3311 27.1873C25.3887 27.2188 25.4504 27.2486 25.5166 27.2761L25.7275 27.3513L25.9521 27.4148L25.9531 27.4158L26.6074 27.5896H26.6064C26.93 27.6703 27.2286 27.7774 27.501 27.9128L27.6992 28.0212C27.8916 28.1355 28.0639 28.2681 28.2158 28.4187L28.3604 28.5769C28.4961 28.7421 28.6058 28.9276 28.6895 29.1326L28.7646 29.3455C28.8294 29.566 28.8624 29.8077 28.8643 30.0691V30.0701C28.8621 30.5177 28.7717 30.9174 28.5908 31.2664L28.5078 31.4128C28.3032 31.7449 28.019 32.011 27.6582 32.2117L27.499 32.2937C27.0631 32.4994 26.5416 32.6003 25.9385 32.6003C25.4145 32.6003 24.9458 32.5218 24.5342 32.363L24.3613 32.2898C23.9106 32.0813 23.5565 31.7715 23.3018 31.3611L23.3008 31.3601V31.3591C23.0483 30.945 22.9184 30.4374 22.9062 29.8416C22.9058 29.8148 22.9158 29.7884 22.9346 29.7693C22.9533 29.7503 22.9792 29.7401 23.0059 29.74H24.4951L24.5332 29.7468C24.5679 29.7609 24.5933 29.7942 24.5957 29.8337C24.6114 30.0913 24.6765 30.2997 24.7871 30.4636L24.8799 30.5789C24.9802 30.6871 25.1026 30.7726 25.2471 30.8367H25.2461C25.4426 30.9202 25.6671 30.9626 25.9209 30.9626C26.1709 30.9626 26.3831 30.9222 26.5596 30.8445L26.6865 30.781C26.8049 30.7117 26.8988 30.6262 26.9697 30.5261L27.0312 30.4226C27.0841 30.3157 27.1113 30.1969 27.1113 30.0652C27.1113 29.9019 27.0676 29.7715 26.9863 29.6677L26.9854 29.6667C26.9029 29.5589 26.7779 29.4619 26.6035 29.3796H26.6025C26.4272 29.296 26.2096 29.2184 25.9482 29.1482H25.9473L25.1543 28.9265V28.9255C24.6072 28.7771 24.1553 28.5549 23.8027 28.2546L23.6572 28.1208C23.3267 27.7919 23.1452 27.3652 23.1064 26.8484L23.0986 26.6208C23.0963 26.1134 23.2172 25.6649 23.4658 25.28H23.4668L23.5645 25.1404C23.8031 24.824 24.1122 24.5721 24.4902 24.3855L24.6553 24.3113C25.0462 24.148 25.4802 24.0672 25.9561 24.0671ZM18.9053 24.0671C19.3285 24.0672 19.7243 24.136 20.0918 24.2751H20.0908C20.4571 24.4111 20.7832 24.6043 21.0674 24.8552L21.2725 25.0525C21.4677 25.2586 21.6329 25.4915 21.7686 25.7507H21.7695C21.9509 26.0948 22.0661 26.4742 22.1172 26.8865C22.1206 26.9148 22.1117 26.9432 22.0928 26.9646C22.0739 26.9859 22.047 26.9987 22.0186 26.9988H20.4541C20.4087 26.9986 20.3689 26.9675 20.3574 26.9236C20.3217 26.7851 20.2752 26.6599 20.2188 26.5476L20.1592 26.4392C20.075 26.2986 19.9728 26.1807 19.8525 26.0857L19.8506 26.0847C19.7622 26.0118 19.6637 25.9514 19.5547 25.9041L19.4414 25.8611C19.2897 25.8097 19.1194 25.783 18.9297 25.783C18.5774 25.783 18.2715 25.8805 18.0078 26.073L18.0068 26.072C17.7783 26.2405 17.5916 26.4789 17.4473 26.7898L17.3877 26.9275C17.2374 27.303 17.1602 27.7678 17.1602 28.324C17.1602 28.88 17.2365 29.3472 17.3848 29.7283L17.4434 29.8669C17.5863 30.1801 17.774 30.4199 18.0049 30.5906H18.0039C18.267 30.7827 18.5795 30.8796 18.9443 30.8796C19.1957 30.8796 19.4157 30.8425 19.6064 30.7703L19.7871 30.6863C20.0187 30.556 20.1941 30.3742 20.3154 30.1384L20.3164 30.1375L20.3975 29.9519C20.4579 29.7842 20.4894 29.5966 20.498 29.3884L19.043 29.4373C19.0161 29.4381 18.9901 29.4276 18.9707 29.4089C18.9512 29.3901 18.9395 29.3638 18.9395 29.3367V28.0466C18.9395 27.9914 18.9848 27.946 19.04 27.946H22.0859C22.1411 27.9461 22.1855 27.9914 22.1855 28.0466V29.0681C22.1855 29.7929 22.0486 30.4218 21.7695 30.9509L21.7686 30.9519C21.525 31.411 21.2001 31.7801 20.7939 32.0574L20.6152 32.1707C20.1244 32.4549 19.5633 32.5964 18.9365 32.5964C18.3244 32.5964 17.7741 32.4643 17.2881 32.199L17.084 32.0769C16.5502 31.7278 16.1359 31.2336 15.8398 30.5984H15.8389C15.5449 29.9597 15.4004 29.2056 15.4004 28.3396C15.4004 27.6741 15.4866 27.0772 15.6611 26.5505V26.5496L15.7305 26.3552C15.9005 25.9106 16.1253 25.5257 16.4053 25.2019L16.5273 25.0671C16.8184 24.7632 17.1508 24.5266 17.5234 24.3572L17.6846 24.2888C18.0651 24.1405 18.4726 24.0671 18.9053 24.0671ZM35.5 24.1775L35.5391 24.1853C35.5749 24.2005 35.5996 24.2367 35.5996 24.2781V25.6912C35.5995 25.7463 35.5551 25.7908 35.5 25.7908H33.3711V32.3855C33.371 32.4406 33.3266 32.4851 33.2715 32.4851H31.75C31.695 32.4849 31.6505 32.4405 31.6504 32.3855V25.7908H29.5215C29.4666 25.7905 29.422 25.7461 29.4219 25.6912V24.2781L29.4297 24.239C29.4447 24.2031 29.4801 24.1777 29.5215 24.1775H35.5Z" fill="#6469E4" stroke="#6469E4" stroke-width="0.2" stroke-linejoin="round"/>
</svg>
