<svg width="30" height="31" viewBox="0 0 30 31" fill="none" xmlns="http://www.w3.org/2000/svg">
<path d="M29.9979 15.5005C29.9979 23.0765 24.3824 29.3396 17.0873 30.356C16.4052 30.4506 15.7073 30.5 14.9989 30.5C14.1813 30.5 13.3783 30.4348 12.5963 30.3087C5.45474 29.1589 0 22.9661 0 15.5005C0 7.21618 6.71595 0.5 15 0.5C23.2841 0.5 30 7.21618 30 15.5005H29.9979Z" fill="#383D38"/>
<path d="M6.08216 7.11621L12.9999 16.3654L6.03906 23.8856H7.60612L13.7009 17.3019L18.6249 23.8856H23.9567L16.65 14.1162L23.1295 7.11621H21.5625L15.9501 13.1797L11.415 7.11621H6.0832H6.08216ZM8.38596 8.27026H10.8348L21.6508 22.7316H19.2019L8.38596 8.27026Z" fill="white"/>
</svg>
